<svg width="44" height="44" viewBox="0 0 44 44" fill="none" xmlns="http://www.w3.org/2000/svg">
<path d="M39.9781 18.4088H38.5013V18.3327H22.0013V25.666H32.3624C30.8508 29.9349 26.7891 32.9993 22.0013 32.9993C15.9266 32.9993 11.0013 28.0741 11.0013 21.9993C11.0013 15.9246 15.9266 10.9993 22.0013 10.9993C24.8054 10.9993 27.3565 12.0572 29.2989 13.7851L34.4845 8.59952C31.2101 5.54793 26.8303 3.66602 22.0013 3.66602C11.8767 3.66602 3.66797 11.8748 3.66797 21.9993C3.66797 32.1239 11.8767 40.3327 22.0013 40.3327C32.1259 40.3327 40.3346 32.1239 40.3346 21.9993C40.3346 20.7701 40.2081 19.5702 39.9781 18.4088Z" fill="#FFC107"/>
<path d="M5.78125 13.4661L11.8047 17.8835C13.4345 13.8483 17.3817 10.9993 22.0008 10.9993C24.8048 10.9993 27.3559 12.0572 29.2983 13.7851L34.4839 8.59952C31.2096 5.54793 26.8298 3.66602 22.0008 3.66602C14.9589 3.66602 8.85208 7.6416 5.78125 13.4661Z" fill="#FF3D00"/>
<path d="M22.0009 40.334C26.7364 40.334 31.0393 38.5217 34.2925 35.5746L28.6184 30.7731C26.7159 32.22 24.3911 33.0025 22.0009 33.0006C17.2324 33.0006 13.1835 29.96 11.6582 25.7168L5.67969 30.323C8.71385 36.2603 14.8757 40.334 22.0009 40.334Z" fill="#4CAF50"/>
<path d="M39.9768 18.4101H38.5V18.334H22V25.6673H32.3611C31.638 27.699 30.3356 29.4744 28.6147 30.7741L28.6174 30.7722L34.2916 35.5737C33.8901 35.9386 40.3333 31.1673 40.3333 22.0007C40.3333 20.7714 40.2068 19.5715 39.9768 18.4101Z" fill="#1976D2"/>
</svg>
